<svg xmlns="http://www.w3.org/2000/svg" fill="none" viewBox="0 0 80 135">
  <path fill="currentColor" d="M23.355 38.922h16.53c4.02 0 9.323 0 12.061 1.664 3.003 1.789 5.361 5.043 5.361 9.523 0 4.853-2.548 8.497-6.767 10.22v.132c5.617 1.151 8.678 5.366 8.678 10.99 0 6.707-4.79 13.1-13.849 13.1H23.355v-45.63Zm6.064 19.61h12.136c6.892 0 9.705-2.493 9.705-7.288 0-6.327-4.468-7.221-9.705-7.221H29.42V58.53Zm0 20.893h15.197c5.229 0 8.555-3.197 8.555-8.174 0-5.946-4.79-7.602-9.895-7.602H29.42v15.776Z"/>
  <path fill="currentColor" d="M74.73 61.745c0 19.162-15.52 34.698-34.672 34.698-19.144 0-34.664-15.536-34.664-34.698 0-19.163 15.52-34.699 34.664-34.699C59.21 27.055 74.73 42.59 74.73 61.745ZM40.066 21.763C18.02 21.763.141 39.659.141 61.728c0 22.07 17.878 39.965 39.925 39.965C62.122 101.693 80 83.797 80 61.728c0-22.07-17.878-39.965-39.934-39.965Zm39.843 88.369H.215v5.242H79.91v-5.242Zm-2.49-5.772c.1 0 .19-.009.281-.009a.98.98 0 0 0 .232-.049.404.404 0 0 0 .165-.141.472.472 0 0 0 .058-.257.423.423 0 0 0-.05-.223.295.295 0 0 0-.14-.125.636.636 0 0 0-.199-.066c-.074-.008-.14-.008-.223-.008h-.57v.886h.446v-.008Zm.19-1.243c.331 0 .57.067.736.199.158.133.24.331.24.605 0 .256-.074.43-.206.555a.99.99 0 0 1-.53.207l.794 1.225h-.463l-.761-1.201h-.455v1.201h-.439v-2.782h1.084v-.009Zm-1.952 2.195a1.8 1.8 0 0 0 .413.654c.174.182.38.323.62.431.232.099.497.149.77.149.282 0 .538-.05.77-.149.24-.108.446-.249.62-.431s.314-.397.405-.654a2.142 2.142 0 0 0-.405-2.253 1.962 1.962 0 0 0-1.39-.579c-.273 0-.538.058-.77.157a1.98 1.98 0 0 0-.62.422 1.891 1.891 0 0 0-.413.646c-.1.249-.15.505-.15.804a1.88 1.88 0 0 0 .15.803Zm-.397-1.747c.124-.29.297-.53.512-.746.216-.215.472-.372.762-.497.29-.124.603-.182.918-.182.33 0 .637.058.935.182.281.125.537.282.744.497.215.216.397.464.513.746.133.289.19.604.19.944 0 .339-.057.654-.19.944a2.341 2.341 0 0 1-.513.762c-.215.223-.463.38-.744.505a2.533 2.533 0 0 1-.935.174c-.323 0-.629-.058-.918-.174a2.288 2.288 0 0 1-.762-.505 2.341 2.341 0 0 1-.512-.762 2.237 2.237 0 0 1-.182-.944c-.009-.34.05-.655.182-.944ZM9.878 4.19a3.075 3.075 0 0 0-.703-.795 3.301 3.301 0 0 0-.96-.538 3.366 3.366 0 0 0-1.117-.19c-.711 0-1.315.14-1.82.414A3.384 3.384 0 0 0 4.07 4.19a4.914 4.914 0 0 0-.678 1.59 7.983 7.983 0 0 0-.215 1.838c0 .604.066 1.192.215 1.764.14.571.364 1.084.678 1.548.306.456.712.828 1.208 1.102.497.273 1.1.414 1.82.414.968 0 1.73-.298 2.267-.886.546-.597.877-1.375 1.001-2.344h3.07c-.083.903-.29 1.714-.63 2.443-.339.729-.777 1.35-1.331 1.855a5.76 5.76 0 0 1-1.936 1.176 7.185 7.185 0 0 1-2.44.406c-1.101 0-2.094-.19-2.979-.58a6.32 6.32 0 0 1-2.234-1.59 7.006 7.006 0 0 1-1.39-2.377 8.732 8.732 0 0 1-.488-2.94c0-1.076.157-2.078.488-2.997.323-.92.786-1.731 1.39-2.41A6.306 6.306 0 0 1 4.12.588C4.997.198 5.99 0 7.098 0c.794 0 1.547.116 2.25.34.704.231 1.34.563 1.895 1.002a5.478 5.478 0 0 1 1.382 1.623c.364.646.595 1.39.686 2.219h-3.069a2.565 2.565 0 0 0-.364-.994Zm7.686 8.066c.43.414 1.05.63 1.853.63.579 0 1.075-.141 1.497-.431.414-.29.67-.596.77-.92h2.523c-.406 1.251-1.026 2.154-1.862 2.692-.835.538-1.845.812-3.027.812-.82 0-1.564-.133-2.218-.398a4.744 4.744 0 0 1-1.68-1.118 4.986 4.986 0 0 1-1.058-1.739 6.376 6.376 0 0 1-.372-2.22c0-.778.124-1.506.38-2.177.257-.67.62-1.259 1.092-1.747a5.158 5.158 0 0 1 1.688-1.16c.654-.281 1.373-.422 2.168-.422.885 0 1.662.174 2.324.513a4.62 4.62 0 0 1 1.622 1.383c.422.58.728 1.242.918 1.98.19.736.257 1.515.199 2.326h-7.529c.041.903.273 1.582.712 1.996Zm3.234-5.49c-.347-.373-.868-.563-1.563-.563-.455 0-.836.074-1.142.231a2.238 2.238 0 0 0-.728.572 2.127 2.127 0 0 0-.38.729c-.075.256-.116.48-.133.687h4.666c-.132-.729-.372-1.284-.72-1.656Zm7.603-2.451v1.937h.042a3.49 3.49 0 0 1 .546-.902 3.48 3.48 0 0 1 .786-.704c.297-.19.612-.348.951-.456a3.46 3.46 0 0 1 1.05-.157c.19 0 .398.033.63.1v2.666a5.024 5.024 0 0 0-.489-.066c-.19-.017-.372-.034-.546-.034-.521 0-.968.092-1.332.266a2.275 2.275 0 0 0-.877.72 2.81 2.81 0 0 0-.471 1.06c-.091.406-.14.845-.14 1.317v4.712h-2.863V4.314H28.4Zm11.665 0v1.92h-2.101v5.176c0 .49.083.812.24.97.157.157.488.24.968.24.165 0 .314-.009.463-.017.149-.017.29-.033.422-.058v2.22c-.24.04-.513.066-.81.082-.299.017-.588.025-.87.025-.446 0-.868-.033-1.257-.091a2.817 2.817 0 0 1-1.05-.356 1.891 1.891 0 0 1-.72-.745c-.174-.323-.265-.746-.265-1.276V6.244h-1.737V4.323h1.737v-3.13h2.862v3.13h2.118v-.008ZM41.737 2.7V.33H44.6V2.7h-2.863ZM44.6 4.314v10.443h-2.863V4.314H44.6Zm1.142 1.922V4.314h1.712v-.811c0-.928.29-1.69.869-2.286.579-.596 1.456-.886 2.622-.886.257 0 .513.009.77.033.256.017.504.042.744.05v2.145a8.645 8.645 0 0 0-1.05-.058c-.39 0-.67.091-.836.273-.166.182-.248.489-.248.92v.629h1.977v1.921h-1.977v8.53h-2.871v-8.53h-1.712v-.008ZM54.238 2.7V.33H57.1V2.7h-2.862Zm2.87 1.614v10.443h-2.87V4.314h2.87Zm4.518 7.942c.43.414 1.05.63 1.853.63.579 0 1.075-.141 1.497-.431.414-.29.67-.596.77-.92h2.523c-.406 1.251-1.026 2.154-1.853 2.692-.836.538-1.845.812-3.028.812-.82 0-1.564-.133-2.217-.398a4.744 4.744 0 0 1-1.68-1.118 4.985 4.985 0 0 1-1.059-1.739 6.374 6.374 0 0 1-.372-2.22c0-.778.132-1.506.38-2.177a4.968 4.968 0 0 1 1.093-1.764 5.156 5.156 0 0 1 1.687-1.16c.654-.281 1.374-.422 2.168-.422.885 0 1.663.174 2.325.514a4.62 4.62 0 0 1 1.621 1.383c.422.58.728 1.242.918 1.979.19.737.257 1.515.207 2.327h-7.528c.033.919.265 1.598.695 2.012Zm3.243-5.49c-.34-.373-.869-.563-1.564-.563-.455 0-.836.074-1.142.231a2.237 2.237 0 0 0-.728.572 2.128 2.128 0 0 0-.38.729c-.075.256-.116.48-.133.687h4.658c-.132-.729-.372-1.284-.711-1.656Zm12.285 6.666c-.34.563-.778.977-1.324 1.226-.546.248-1.158.372-1.844.372-.778 0-1.465-.149-2.06-.455a4.088 4.088 0 0 1-1.465-1.234 5.8 5.8 0 0 1-.868-1.789 7.38 7.38 0 0 1-.29-2.103c0-.704.1-1.375.29-2.029a5.31 5.31 0 0 1 .868-1.73 4.32 4.32 0 0 1 1.44-1.202c.579-.306 1.249-.455 2.018-.455.62 0 1.208.132 1.763.397a3.057 3.057 0 0 1 1.323 1.16h.041V.34h2.863v14.425h-2.722v-1.333h-.033Zm-.124-5.167a3.04 3.04 0 0 0-.414-1.052 2.313 2.313 0 0 0-.76-.737c-.307-.19-.704-.282-1.167-.282-.464 0-.869.091-1.192.282a2.31 2.31 0 0 0-.777.745c-.19.307-.331.663-.422 1.06a5.55 5.55 0 0 0 .008 2.451c.091.406.248.762.455 1.085.207.315.472.572.786.77.314.2.695.29 1.142.29.471 0 .86-.09 1.183-.281.314-.19.57-.44.76-.762a3.42 3.42 0 0 0 .406-1.077c.083-.405.124-.82.124-1.25a6.726 6.726 0 0 0-.132-1.242ZM7.206 125.667c-.14-1.01-1.109-1.78-2.217-1.78-2.002 0-2.755 1.706-2.755 3.486 0 1.689.753 3.395 2.755 3.395 1.365 0 2.134-.935 2.3-2.277h2.167c-.232 2.534-1.977 4.157-4.467 4.157-3.144 0-4.989-2.352-4.989-5.275 0-3.014 1.845-5.366 4.989-5.366 2.233 0 4.103 1.308 4.376 3.66h-2.16Zm6.908-.811c2.316 0 3.805 1.532 3.805 3.883 0 2.336-1.489 3.868-3.805 3.868-2.3 0-3.798-1.541-3.798-3.868 0-2.343 1.498-3.883 3.798-3.883Zm0 6.235c1.381 0 1.787-1.184 1.787-2.343 0-1.184-.414-2.36-1.787-2.36-1.365 0-1.779 1.184-1.779 2.36 0 1.159.414 2.343 1.779 2.343Zm5.055-6.045h1.919v1.366h.033c.364-.927 1.365-1.565 2.35-1.565.14 0 .314.025.438.067v1.879a3.93 3.93 0 0 0-.728-.066c-1.48 0-1.994 1.068-1.994 2.36v3.313H19.17v-7.354Zm5.526.008h1.92v.936h.024c.48-.778 1.274-1.134 2.184-1.134 2.308 0 3.343 1.863 3.343 3.95 0 1.962-1.076 3.801-3.227 3.801-.877 0-1.72-.381-2.2-1.11h-.034V135h-2.018v-9.946h.008Zm5.452 3.702c0-1.168-.472-2.377-1.762-2.377-1.324 0-1.746 1.185-1.746 2.377 0 1.193.455 2.335 1.762 2.335 1.324 0 1.746-1.142 1.746-2.335Zm6.445-3.9c2.316 0 3.813 1.532 3.813 3.883 0 2.336-1.497 3.868-3.813 3.868-2.3 0-3.79-1.541-3.79-3.868 0-2.343 1.49-3.883 3.79-3.883Zm0 6.235c1.381 0 1.795-1.184 1.795-2.343 0-1.184-.414-2.36-1.795-2.36-1.365 0-1.78 1.184-1.78 2.36.01 1.159.423 2.343 1.78 2.343Zm5.063-6.045h1.919v1.366h.033c.364-.927 1.365-1.565 2.341-1.565.14 0 .315.025.439.067v1.879a3.8 3.8 0 0 0-.728-.066c-1.481 0-1.994 1.068-1.994 2.36v3.313h-2.019v-7.354h.009Zm5.327 2.269c.116-1.896 1.804-2.459 3.459-2.459 1.464 0 3.226.323 3.226 2.086v3.826c0 .671.066 1.334.256 1.64h-2.051c-.066-.232-.133-.472-.14-.712-.638.671-1.573.911-2.474.911-1.39 0-2.499-.696-2.499-2.203 0-1.665 1.25-2.062 2.498-2.236 1.242-.182 2.391-.141 2.391-.969 0-.869-.604-.994-1.307-.994-.77 0-1.266.315-1.34 1.11h-2.019Zm4.658 1.499c-.347.298-1.05.315-1.68.431-.628.124-1.19.339-1.19 1.084 0 .754.578.936 1.24.936 1.572 0 1.638-1.25 1.638-1.689v-.762h-.008Zm6.097-3.76h1.481v1.35h-1.48v3.644c0 .687.173.853.852.853.215 0 .413-.017.628-.058v1.582c-.339.058-.786.074-1.183.074-1.232 0-2.316-.29-2.316-1.747v-4.34h-1.225v-1.349h1.225v-2.203h2.018v2.194Zm5.022-1.134H60.74v-1.665h2.019v1.665Zm-2.019 1.134h2.019v7.354H60.74v-7.354Zm7.165-.198c2.316 0 3.814 1.532 3.814 3.883 0 2.336-1.498 3.868-3.814 3.868-2.3 0-3.79-1.541-3.79-3.868 0-2.343 1.49-3.883 3.79-3.883Zm0 6.235c1.381 0 1.795-1.184 1.795-2.343 0-1.184-.414-2.36-1.795-2.36-1.365 0-1.779 1.184-1.779 2.36 0 1.159.414 2.343 1.779 2.343Zm5.113-6.037h1.919v1.027h.041c.513-.828 1.39-1.225 2.25-1.225 2.143 0 2.69 1.209 2.69 3.031v4.521h-2.02v-4.157c0-1.209-.355-1.805-1.29-1.805-1.1 0-1.564.612-1.564 2.111v3.859h-2.018v-7.362h-.008Z"/>
</svg>
