<svg xmlns="http://www.w3.org/2000/svg" fill="none" viewBox="0 0 80 102">
  <path fill="currentColor" d="M54.389 41.318c4.365 0 4.867-2.965 4.867-7.886 0-4.92-.502-7.839-4.867-7.839-4.366 0-4.868 2.864-4.868 7.84 0 4.974.502 7.885 4.868 7.885ZM22.69 61.51h-4.217v23.21h4.413c5.47 0 7.68-2.212 7.68-11.754 0-9.543-2.155-11.457-7.876-11.457Zm27.258 17.333h8.528L54.26 64.72l-4.312 14.123Z"/>
  <path fill="currentColor" d="M0 0v102.163h80V0H0Zm54.389 18.508c10.141 0 12.5 5.877 12.5 14.673s-2.359 14.775-12.5 14.775c-10.142 0-12.549-5.776-12.549-14.775 0-9 2.461-14.673 12.549-14.673Zm-33.3 13.214c-6.826-2.11-10.086-4.873-10.086-10.954 0-7.29 4.616-10.954 12.846-10.954 5.172 0 8.433.902 11.396 2.314l-3.41 6.733c-1.756-.855-4.265-1.656-7.783-1.656-3.762 0-5.369.957-5.369 3.319 0 2.565 1.458 3.162 5.925 4.621 8.88 2.864 11.897 4.826 11.897 12.108 0 6.583-4.013 10.703-13.097 10.703-6.176 0-10.69-1.154-14.053-3.366l3.966-6.034c2.054 1.31 5.518 2.66 9.89 2.66 4.373 0 5.675-1.357 5.675-3.82 0-3.265-1.709-3.767-7.783-5.681l-.013.007Zm1.106 59.833h-11.6V54.322h11.593c11.796 0 16.365 4.37 16.365 18.59 0 14.218-4.468 18.643-16.365 18.643h.007Zm39.901 0-1.708-5.776H48.091l-1.654 5.776h-7.878L50.152 54.07h8.433l11.592 37.484h-8.08Z"/>
</svg>
