<svg xmlns="http://www.w3.org/2000/svg" fill="none" viewBox="0 0 80 57">
  <path fill="currentColor" d="M10.758 44.054H0V0h10.758v44.054Zm67.873-9.468H62.59c.783-2.705 5.282-4.25 9.78-6.955C77.458 24.539 80 20.867 80 16.037c0-7.535-6.26-12.945-14.474-12.945-8.215 0-15.061 5.41-15.061 14.491h10.17c0-2.898 1.761-5.024 4.5-5.024 2.542 0 3.911 1.74 3.911 3.478 0 1.933-1.564 3.478-7.628 6.763-7.824 4.25-11.345 8.888-11.345 16.424v4.83h28.753v-9.468h-.195Zm-31.687 6.57c0 9.468-6.65 15.844-16.235 15.844-7.041 0-15.257-4.058-16.04-12.946h10.368c.587 2.512 2.543 3.865 5.476 3.865 3.326 0 5.673-1.933 5.673-5.604V39.61c-1.565 1.353-4.108 2.319-7.628 2.319-8.411 0-15.062-6.763-15.062-15.651 0-9.081 6.455-16.23 15.062-16.23 3.52 0 6.259 1.352 7.628 2.898v-2.319h10.758v30.529ZM36.577 25.892c0-3.478-2.543-6.183-6.064-6.183-3.52 0-6.063 2.898-6.063 6.183 0 3.477 2.543 6.183 6.063 6.183 3.521 0 6.064-2.706 6.064-6.184Z"/>
</svg>
